<?xml version="1.0" encoding="UTF-8" standalone="no"?>
<!-- Created with Inkscape (http://www.inkscape.org/) -->

<svg
   width="240"
   height="240"
   viewBox="0 0 63.5 63.5"
   version="1.1"
   id="svg5"
   sodipodi:docname="icon.svg"
   inkscape:version="1.1.2 (0a00cf5339, 2022-02-04, custom)"
   xmlns:inkscape="http://www.inkscape.org/namespaces/inkscape"
   xmlns:sodipodi="http://sodipodi.sourceforge.net/DTD/sodipodi-0.dtd"
   xmlns="http://www.w3.org/2000/svg"
   xmlns:svg="http://www.w3.org/2000/svg">
  <sodipodi:namedview
     id="namedview7"
     pagecolor="#ffffff"
     bordercolor="#666666"
     borderopacity="1.0"
     inkscape:pageshadow="2"
     inkscape:pageopacity="0.0"
     inkscape:pagecheckerboard="0"
     inkscape:document-units="mm"
     showgrid="false"
     units="px"
     inkscape:zoom="0.49709596"
     inkscape:cx="-29.169418"
     inkscape:cy="440.5588"
     inkscape:window-width="1362"
     inkscape:window-height="732"
     inkscape:window-x="0"
     inkscape:window-y="32"
     inkscape:window-maximized="1"
     inkscape:current-layer="layer1" />
  <defs
     id="defs2" />
  <g
     inkscape:label="Слой 1"
     inkscape:groupmode="layer"
     id="layer1">
    <path
       id="rect846"
       style="opacity:0.998505;fill:#cba6f7;stroke-width:0.474362;fill-opacity:1"
       d="m 62.660676,39.936085 c -1.255006,4.661452 -3.585732,8.964331 -6.633604,12.550063 -3.22716,3.585733 -6.992179,6.633605 -11.474344,8.426471 -4.482165,1.972153 -9.143617,2.868586 -13.984356,2.510013 C 25.727639,63.243345 21.066187,61.988339 16.763308,59.657613 12.46042,57.326887 8.8746882,54.099728 6.0061022,50.155422 3.1375162,46.390403 1.1653632,41.908238 0.44821716,37.246786 c 0,-0.358573 -0.179287,-0.896433 -0.179287,-1.255006 -0.717147,-5.378599 0,-10.936484 2.15143904,-16.135796 1.434293,-3.406446 4.123593,-6.992178 6.454319,-8.067898 -1.792867,3.406446 -2.868586,6.992178 -3.22716,10.757197 1.07572,-4.482165 3.944306,-8.605757 7.7093248,-11.474343 C 19.990467,6.2302007 28.775506,6.0509137 32.361238,9.0987868 25.906925,11.429513 18.735461,20.393844 20.34904,30.971754 c 0.179287,1.792866 0.717147,3.406446 1.61358,5.020026 -1.255007,-3.22716 -1.255007,-7.709325 0.717146,-10.757198 2.15144,-3.227159 5.378593,-3.944305 6.992173,-3.585732 -6.275026,5.378599 -3.227159,17.570089 8.785044,18.287235 0.358573,0 0.53786,0 0.896433,0 0.179287,0 0.179287,0 0.358573,0 -0.358573,0 -0.537859,0 -0.896433,0 4.482166,0 9.322904,-3.227159 11.65363,-6.633605 3.047873,-4.661452 3.406446,-12.72935 -0.537859,-19.004381 -0.896434,-1.61358 -2.15144,-3.047873 -3.406446,-4.3028792 -3.227159,-3.047873 -7.171465,-5.199312 -11.65363,-6.454309 -4.302879,-1.0757201 -8.964326,-1.0757201 -13.267205,0 -2.330726,0.5378509 -4.482165,1.4342839 -6.633604,2.510003 2.510012,-2.510003 6.454318,-4.482156 10.936483,-5.37858905 4.302874,-0.896433 8.785039,-0.896433 13.087918,0 2.510013,0.53785995 4.840739,1.43429295 7.171465,2.51001195 2.689299,1.254998 5.199312,3.047864 7.171464,5.1993031 0.179287,0.1792869 0.179287,0.1792869 0.358574,0.358574 0.179286,0.179286 0.358573,0.358573 0.717146,0.537859 1.07572,1.0757202 1.972153,1.9721532 2.689299,3.2271602 2.868586,3.765019 4.840739,8.247184 5.737172,13.087923 1.07572,4.840738 0.896433,9.681477 -0.179287,14.342929 z" />
  </g>
</svg>
